<svg class="ink-edit-icon ink-icon" height="24px" version="1.1" viewBox="0 0 24 24" width="24px" xmlns="http://www.w3.org/2000/svg" xmlns:xlink="http://www.w3.org/1999/xlink"><path color="#4285f4" class="ink-icon-color" d="M21,17 L18.42,17 L20.93,19.56 C20.75,20.25 20.2,20.82 19.52,21 L17,18.5 L17,21 L15,21 L15,15 L21,15 L21,17 L21,17 Z"/><path fill="#424242" d="M19,7 L21,7 L21,9 L19,9 L19,7 L19,7 Z M21,5 L19,5 L19,3.08 C20.1,3.08 21,4 21,5 L21,5 Z M15,3 L17,3 L17,5 L15,5 L15,3 L15,3 Z M19,11 L21,11 L21,13 L19,13 L19,11 L19,11 Z M9,21 L7,21 L7,19 L9,19 L9,21 L9,21 Z M5,9 L3,9 L3,7 L5,7 L5,9 L5,9 Z M5,3.08 L5,5 L3,5 C3,4 4,3.08 5,3.08 L5,3.08 Z M5,17 L3,17 L3,15 L5,15 L5,17 L5,17 Z M9,5 L7,5 L7,3 L9,3 L9,5 L9,5 Z M13,5 L11,5 L11,3 L13,3 L13,5 L13,5 Z M13,21 L11,21 L11,19 L13,19 L13,21 L13,21 Z M5,13 L3,13 L3,11 L5,11 L5,13 L5,13 Z M5,21.08 C3.9,21.08 3,20 3,19 L5,19 L5,21.08 L5,21.08 Z"/></svg>