<svg class="ink-highlighter-icon ink-icon" fill="none" fill-rule="evenodd" height="24px" stroke="none" stroke-width="1" version="1.1" viewBox="0 0 24 24" width="24px" xmlns="http://www.w3.org/2000/svg" xmlns:xlink="http://www.w3.org/1999/xlink"><path fill="#424242" d="M10.22,9.49 L4.31,15.49 C3.54,16.29 3.61,17.54 4.39,18.34 L0.77,22 L6.45,22 L7.19,21.25 C7.97,22.06 9.14,22.11 9.92,21.3 L15.88,15.25 L10.22,9.49 L10.22,9.49 Z"/><path color="#ffbc00" class="ink-icon-color" d="M22.68,5.49 L19.86,2.62 C19.08,1.82 17.79,1.78 17.02,2.58 L11.27,8.43 L16.93,14.18 L22.62,8.4 C23.39,7.59 23.45,6.29 22.68,5.49 L22.68,5.49 Z"/><path fill="#424242" class="ink-cap-border" d="M18.4,3c0.3,0,0.5,0.1,0.7,0.3L22,6.2c0.4,0.4,0.4,1.1-0.1,1.5l-5,5.1l-4.3-4.3l5.1-5.2 C17.9,3.1,18.1,3,18.4,3 M18.4,2c-0.5,0-1,0.2-1.4,0.6l-5.8,5.9l5.7,5.8l5.7-5.8c0.8-0.8,0.8-2.1,0.1-2.9l-2.8-2.9 C19.5,2.2,18.9,2,18.4,2L18.4,2z"/></svg>